<svg width="20" height="14" viewBox="0 0 20 14" fill="none" xmlns="http://www.w3.org/2000/svg">
<path fill-rule="evenodd" clip-rule="evenodd" d="M5.90695 3.74428C5.57591 5.0411 4.39994 6 3 6C1.34315 6 0 4.65685 0 3C0 1.34315 1.34315 0 3 0C4.39994 0 5.57591 0.958896 5.90695 2.25572C5.93744 2.25194 5.96849 2.25 6 2.25L19 2.25C19.4142 2.25 19.75 2.58579 19.75 3C19.75 3.41421 19.4142 3.75 19 3.75L6 3.75C5.96849 3.75 5.93744 3.74806 5.90695 3.74428ZM4.5 3C4.5 3.82843 3.82843 4.5 3 4.5C2.17157 4.5 1.5 3.82843 1.5 3C1.5 2.17157 2.17157 1.5 3 1.5C3.82843 1.5 4.5 2.17157 4.5 3Z" fill="#2F2F2F"/>
<path fill-rule="evenodd" clip-rule="evenodd" d="M20 11C20 12.6569 18.6569 14 17 14C15.6001 14 14.4241 13.0411 14.093 11.7443C14.0626 11.7481 14.0315 11.75 14 11.75L1 11.75C0.585787 11.75 0.25 11.4142 0.25 11C0.25 10.5858 0.585786 10.25 1 10.25L14 10.25C14.0315 10.25 14.0626 10.2519 14.093 10.2557C14.4241 8.9589 15.6001 8 17 8C18.6569 8 20 9.34315 20 11ZM18.5 11C18.5 11.8284 17.8284 12.5 17 12.5C16.1716 12.5 15.5 11.8284 15.5 11C15.5 10.1716 16.1716 9.5 17 9.5C17.8284 9.5 18.5 10.1716 18.5 11Z" fill="#2F2F2F"/>
</svg>
